<svg width="29" height="29" viewBox="0 0 29 29" fill="none" xmlns="http://www.w3.org/2000/svg">
<g clip-path="url(#clip0_1_239)">
<path d="M25.205 0.489258H3.7948C1.9692 0.489258 0.489258 1.9692 0.489258 3.7948V25.2027C0.489258 27.0283 1.9692 28.5082 3.7948 28.5082H25.205C27.0306 28.5082 28.5105 27.0283 28.5105 25.2027V3.7948C28.5105 1.9692 27.0306 0.489258 25.205 0.489258Z" fill="url(#paint0_linear_1_239)"/>
<path d="M11.924 13.6573C11.924 13.6573 14.3029 13.4806 14.3029 10.6916C14.3029 7.90266 12.3567 6.54102 9.8917 6.54102H1.78076V22.1285H9.8917C9.8917 22.1285 14.8421 22.2848 14.8421 17.527C14.8421 17.527 15.0596 13.6573 11.924 13.6573ZM5.35365 9.31187H9.8849C9.8849 9.31187 10.9883 9.31187 10.9883 10.9341C10.9883 12.5562 10.3403 12.7919 9.60396 12.7919H5.35592L5.35365 9.31187ZM9.68099 19.3577H5.35592V15.1934H9.88717C9.88717 15.1934 11.5297 15.1708 11.5297 17.3345C11.5343 19.1356 10.3335 19.3395 9.68326 19.3577H9.68099ZM21.4464 10.5081C15.4515 10.5081 15.4583 16.4962 15.4583 16.4962C15.4583 16.4962 15.046 22.4548 21.4464 22.4548C21.4464 22.4548 26.7797 22.7584 26.7797 18.3109H24.0383C24.0383 18.3109 24.1289 19.9875 21.5461 19.9875C21.5461 19.9875 18.8024 20.171 18.8024 17.2688H26.8794C26.8794 17.2688 27.7561 10.5081 21.4464 10.5081ZM23.8842 15.1934H18.7639C18.7639 15.1934 19.0992 12.7919 21.5076 12.7919C23.9159 12.7919 23.8842 15.1934 23.8842 15.1934ZM18.0933 7.46086H24.5231V9.37984H18.0933V7.46086Z" fill="#1E2028"/>
</g>
<defs>
<linearGradient id="paint0_linear_1_239" x1="14.4999" y1="0.489258" x2="14.4999" y2="28.5105" gradientUnits="userSpaceOnUse">
<stop stop-color="white"/>
<stop offset="1" stop-color="white"/>
</linearGradient>
<clipPath id="clip0_1_239">
<rect width="29" height="29" fill="white"/>
</clipPath>
</defs>
</svg>
