<svg width="32" height="26" viewBox="0 0 32 26" fill="none" xmlns="http://www.w3.org/2000/svg">
<path d="M31.9983 3.16631C30.8002 3.69461 29.5293 4.04139 28.228 4.19511C29.5835 3.3865 30.6242 2.10603 31.1143 0.580367C29.8257 1.34144 28.4159 1.87766 26.9458 2.16587C25.7483 0.896099 24.0424 0.102539 22.1542 0.102539C18.5288 0.102539 15.5894 3.02797 15.5894 6.63613C15.5894 7.14829 15.6476 7.64689 15.7594 8.12522C10.3037 7.85265 5.46668 5.25153 2.22887 1.29854C1.66393 2.26352 1.34021 3.386 1.34021 4.58325C1.34021 6.8501 2.49922 8.84986 4.26055 10.0216C3.21809 9.98911 2.19856 9.70887 1.28709 9.20428C1.28671 9.23165 1.28671 9.25902 1.28671 9.28651C1.28671 12.4522 3.54949 15.093 6.55245 15.6932C5.58578 15.9549 4.57181 15.9932 3.58799 15.8052C4.42328 18.4009 6.84767 20.2899 9.72014 20.3427C7.47349 22.0951 4.64289 23.1397 1.56744 23.1397C1.03749 23.1397 0.51504 23.1087 0.00146484 23.0483C2.90656 24.9022 6.35709 25.9839 10.0642 25.9839C22.1389 25.9839 28.7417 16.0279 28.7417 7.39386C28.7417 7.11047 28.7354 6.8287 28.7227 6.54855C30.0078 5.62385 31.1171 4.47852 31.9983 3.16631Z" fill="white"/>
</svg>
