<svg width="146" height="109" viewBox="0 0 146 109" fill="none" xmlns="http://www.w3.org/2000/svg">
<g clip-path="url(#clip0_1_70)">
<path d="M19.3009 92.0547C19.2844 92.058 19.268 92.0587 19.2525 92.0571L19.2096 92.0467C19.196 92.0407 19.1838 92.0321 19.1727 92.0224L19.1424 91.9882C19.1344 91.9754 19.1288 91.9613 19.125 91.9468L19.1197 91.9016L19.1203 91.9004L20.4655 59.8472L20.4652 59.8463C20.4658 59.8316 20.4686 59.817 20.4733 59.8032L20.4938 59.7646C20.511 59.7406 20.5354 59.7217 20.5629 59.7111L20.6054 59.7016L20.6495 59.7042C20.6638 59.7073 20.6775 59.7126 20.6902 59.7196L20.7251 59.7468L20.7264 59.7473L29.1324 68.2294L29.4139 68.514L29.8145 68.5259L41.754 68.8655L41.7549 68.8651C41.7836 68.8664 41.8114 68.8759 41.835 68.8923C41.8472 68.9008 41.8578 68.9112 41.867 68.9227L41.8891 68.9602C41.8945 68.9737 41.8981 68.9879 41.8994 69.0023L41.8969 69.0463C41.8912 69.0747 41.8786 69.1015 41.8587 69.1224L41.8574 69.1218L19.38 92.013C19.3586 92.0347 19.3309 92.0489 19.3009 92.0547Z" fill="#008D53" stroke="white" stroke-width="2"/>
</g>
<rect x="35.8826" y="23.6986" width="102.425" height="36.7193" rx="7.72401" transform="rotate(-6.55882 35.8826 23.6986)" fill="#008D53"/>
<rect x="35.8826" y="23.6986" width="102.425" height="36.7193" rx="7.72401" transform="rotate(-6.55882 35.8826 23.6986)" stroke="white" stroke-width="2"/>
<path d="M65.7619 38.039C65.931 39.2546 65.8576 40.3356 65.5418 41.2821C65.2259 42.2286 64.7187 42.9951 64.0202 43.5818C63.3216 44.1684 62.4808 44.5301 61.4979 44.6668C60.5149 44.8035 59.6073 44.685 58.7752 44.3112C57.943 43.9374 57.2459 43.3383 56.6838 42.5139C56.1217 41.6896 55.7562 40.6696 55.5871 39.454C55.4181 38.2385 55.4915 37.1574 55.8073 36.211C56.1231 35.2645 56.6303 34.4979 57.3289 33.9113C58.0275 33.3246 58.8682 32.9629 59.8512 32.8262C60.8342 32.6895 61.7417 32.8081 62.5739 33.1819C63.406 33.5557 64.1031 34.1547 64.6652 34.9791C65.2273 35.8035 65.5929 36.8235 65.7619 38.039ZM64.4113 38.2269C64.2725 37.2289 63.9884 36.4098 63.559 35.7697C63.1334 35.129 62.6128 34.6718 61.9972 34.3979C61.3854 34.1235 60.7306 34.0348 60.0328 34.1318C59.3349 34.2289 58.7273 34.4931 58.2098 34.9246C57.6961 35.3555 57.32 35.9375 57.0816 36.6705C56.8469 37.403 56.799 38.2682 56.9378 39.2662C57.0766 40.2642 57.3588 41.0835 57.7844 41.7241C58.2138 42.3643 58.7344 42.8216 59.3462 43.096C59.9618 43.3698 60.6185 43.4583 61.3163 43.3612C62.0141 43.2642 62.6199 43.0002 63.1336 42.5692C63.6511 42.1378 64.0272 41.5558 64.2618 40.8233C64.5003 40.0903 64.5501 39.2248 64.4113 38.2269ZM68.4553 31.7903L70.0581 43.3157L68.73 43.5004L67.1272 31.975L68.4553 31.7903ZM75.0626 42.8263C74.5148 42.9025 74.0033 42.8684 73.5282 42.7242C73.0525 42.5762 72.656 42.3235 72.3386 41.966C72.0206 41.6049 71.8225 41.1429 71.7443 40.5801C71.6754 40.0849 71.7171 39.6699 71.8694 39.3351C72.0212 38.9966 72.248 38.7165 72.5499 38.4947C72.8518 38.273 73.1937 38.0916 73.5756 37.9505C73.9608 37.8052 74.3505 37.6783 74.7446 37.57C75.2605 37.4294 75.6792 37.3195 76.0009 37.2404C76.3259 37.157 76.5574 37.0617 76.6955 36.9545C76.8373 36.8468 76.8933 36.6861 76.8636 36.4722L76.8573 36.4272C76.7801 35.8719 76.5682 35.4616 76.2215 35.1962C75.8786 34.9303 75.4013 34.8399 74.7898 34.9249C74.1557 35.0131 73.6779 35.221 73.3564 35.5488C73.0348 35.8765 72.8228 36.2081 72.7203 36.5436L71.3971 36.2687C71.5491 35.7121 71.7924 35.2614 72.1269 34.9166C72.4646 34.5675 72.8486 34.3038 73.2789 34.1254C73.7124 33.9427 74.1468 33.8212 74.582 33.7606C74.8596 33.722 75.1832 33.7114 75.5528 33.7289C75.9256 33.7421 76.2949 33.8265 76.6607 33.9821C77.0303 34.1372 77.3561 34.4036 77.638 34.7812C77.92 35.1589 78.1088 35.691 78.2042 36.3775L78.9963 42.0727L77.6681 42.2574L77.5053 41.0869L77.4378 41.0963C77.3739 41.2964 77.2517 41.518 77.0713 41.761C76.891 42.0041 76.6368 42.2249 76.3087 42.4235C75.9807 42.6221 75.5653 42.7564 75.0626 42.8263ZM75.0992 41.6051C75.6245 41.532 76.0528 41.3673 76.3843 41.1108C76.7195 40.8539 76.9564 40.5494 77.0948 40.1975C77.237 39.845 77.2831 39.4886 77.233 39.1285L77.0639 37.9129C77.0171 37.9882 76.9019 38.0674 76.7183 38.1502C76.5381 38.2289 76.327 38.306 76.0851 38.3817C75.8465 38.4532 75.6129 38.5201 75.3845 38.5824C75.1593 38.6405 74.9767 38.6888 74.8367 38.7274C74.4978 38.8205 74.1853 38.9385 73.8993 39.0815C73.6165 39.2203 73.397 39.4019 73.2408 39.6263C73.0878 39.8464 73.0348 40.1253 73.0818 40.463C73.146 40.9244 73.3652 41.2496 73.7395 41.4385C74.117 41.6231 74.5702 41.6786 75.0992 41.6051ZM81.6005 41.7106L79.9976 30.1851L81.3258 30.0004L81.9174 34.2549L82.03 34.2393C82.1067 34.0756 82.2151 33.8655 82.3553 33.6089C82.4988 33.348 82.721 33.103 83.0218 32.8737C83.3259 32.6402 83.7593 32.4844 84.322 32.4061C85.0499 32.3049 85.7168 32.3976 86.3226 32.6843C86.9285 32.971 87.4336 33.4266 87.8378 34.0511C88.2421 34.6756 88.5074 35.4419 88.6336 36.3498C88.7609 37.2652 88.7156 38.0804 88.4976 38.7953C88.2791 39.5064 87.9196 40.0841 87.4192 40.5285C86.9183 40.9691 86.3077 41.2395 85.5874 41.3397C85.0321 41.4169 84.5747 41.3868 84.2153 41.2494C83.8553 41.1083 83.5688 40.932 83.3558 40.7207C83.1424 40.5056 82.9759 40.3261 82.8564 40.1821L82.6989 40.204L82.8836 41.5321L81.6005 41.7106ZM82.305 37.207C82.3958 37.8598 82.5716 38.4224 82.8323 38.8947C83.0925 39.3634 83.426 39.7128 83.8328 39.9431C84.2391 40.1696 84.7086 40.2458 85.2414 40.1717C85.7966 40.0944 86.2396 39.8837 86.5704 39.5394C86.9043 39.1908 87.1304 38.754 87.2486 38.2289C87.37 37.6996 87.3879 37.1273 87.3024 36.512C87.2179 35.9042 87.0479 35.3695 86.7925 34.9078C86.5403 34.4419 86.2068 34.0925 85.7919 33.8595C85.3803 33.6223 84.8932 33.5428 84.3304 33.6211C83.7901 33.6962 83.3552 33.8963 83.0256 34.2213C82.6955 34.5425 82.4706 34.9601 82.3508 35.4739C82.2305 35.984 82.2153 36.5617 82.305 37.207ZM93.835 40.2156C93.2873 40.2918 92.7758 40.2578 92.3007 40.1135C91.825 39.9655 91.4284 39.7128 91.111 39.3554C90.7931 38.9942 90.595 38.5323 90.5167 37.9695C90.4479 37.4743 90.4896 37.0593 90.6419 36.7245C90.7937 36.3859 91.0205 36.1058 91.3224 35.8841C91.6243 35.6624 91.9662 35.481 92.3481 35.3399C92.7333 35.1945 93.1229 35.0677 93.5171 34.9593C94.0329 34.8188 94.4517 34.7089 94.7734 34.6297C95.0984 34.5463 95.3299 34.451 95.4679 34.3438C95.6098 34.2362 95.6658 34.0754 95.6361 33.8615L95.6298 33.8165C95.5526 33.2613 95.3406 32.8509 94.9939 32.5856C94.651 32.3197 94.1738 32.2292 93.5623 32.3143C92.9282 32.4024 92.4504 32.6104 92.1288 32.9381C91.8073 33.2658 91.5952 33.5974 91.4928 33.9329L90.1696 33.658C90.3216 33.1015 90.5649 32.6508 90.8994 32.306C91.2371 31.9569 91.6211 31.6932 92.0514 31.5148C92.4849 31.3321 92.9192 31.2105 93.3544 31.15C93.6321 31.1114 93.9557 31.1008 94.3252 31.1182C94.698 31.1314 95.0673 31.2158 95.4332 31.3714C95.8028 31.5266 96.1285 31.7929 96.4105 32.1706C96.6925 32.5482 96.8812 33.0803 96.9767 33.7669L97.7687 39.4621L96.4406 39.6468L96.2778 38.4762L96.2103 38.4856C96.1463 38.6857 96.0242 38.9073 95.8438 39.1504C95.6634 39.3935 95.4092 39.6143 95.0812 39.8129C94.7532 40.0115 94.3378 40.1457 93.835 40.2156ZM93.8717 38.9944C94.397 38.9214 94.8253 38.7566 95.1568 38.5002C95.492 38.2432 95.7288 37.9388 95.8673 37.5868C96.0095 37.2343 96.0555 36.878 96.0055 36.5178L95.8364 35.3022C95.7895 35.3776 95.6743 35.4567 95.4908 35.5396C95.3105 35.6182 95.0994 35.6954 94.8576 35.7711C94.6189 35.8425 94.3854 35.9094 94.1569 35.9718C93.9317 36.0299 93.7492 36.0782 93.6092 36.1168C93.2703 36.2098 92.9578 36.3278 92.6718 36.4709C92.3889 36.6096 92.1694 36.7912 92.0132 37.0156C91.8603 37.2358 91.8073 37.5147 91.8543 37.8523C91.9184 38.3138 92.1377 38.639 92.5119 38.8278C92.8894 39.0125 93.3427 39.068 93.8717 38.9944ZM100.798 33.7403L101.521 38.9403L100.193 39.125L98.9907 30.4809L100.274 30.3024L100.462 31.6531L100.574 31.6374C100.716 31.1703 100.974 30.7748 101.35 30.4511C101.725 30.1236 102.239 29.9144 102.892 29.8236C103.477 29.7422 104.006 29.7911 104.478 29.9701C104.95 30.1454 105.342 30.4581 105.653 30.9082C105.964 31.3545 106.17 31.9453 106.272 32.6807L107.036 38.1733L105.708 38.358L104.957 32.9554C104.862 32.2764 104.612 31.7719 104.207 31.442C103.801 31.1084 103.29 30.9843 102.675 31.0699C102.251 31.1289 101.885 31.2735 101.577 31.5037C101.272 31.7335 101.049 32.038 100.906 32.4173C100.764 32.7966 100.728 33.2376 100.798 33.7403ZM108.261 29.1917L109.589 29.007L110.879 38.2814C110.953 38.8141 110.925 39.2884 110.796 39.7041C110.67 40.1194 110.438 40.4595 110.1 40.7244C109.766 40.9889 109.321 41.1597 108.766 41.237C108.721 41.2432 108.676 41.2495 108.631 41.2558C108.586 41.262 108.541 41.2683 108.496 41.2745L108.323 40.0364C108.368 40.0302 108.41 40.0244 108.447 40.0192C108.485 40.014 108.526 40.0083 108.571 40.002C108.976 39.9457 109.256 39.7844 109.41 39.5182C109.565 39.2557 109.612 38.905 109.551 38.4661L108.261 29.1917ZM108.713 27.6602C108.454 27.6962 108.219 27.6391 108.007 27.4889C107.799 27.3381 107.677 27.1389 107.643 26.8913C107.608 26.6437 107.671 26.4189 107.83 26.217C107.993 26.0146 108.204 25.8954 108.463 25.8594C108.722 25.8234 108.955 25.8808 109.164 26.0315C109.376 26.1818 109.499 26.3807 109.534 26.6283C109.568 26.8759 109.504 27.101 109.341 27.3034C109.181 27.5053 108.972 27.6242 108.713 27.6602ZM113.224 37.3128L112.022 28.6687L113.35 28.484L114.552 37.1281L113.224 37.3128ZM112.497 27.1341C112.238 27.1701 112.002 27.113 111.79 26.9627C111.582 26.812 111.46 26.6128 111.426 26.3652C111.391 26.1175 111.454 25.8928 111.613 25.6909C111.776 25.4885 111.987 25.3693 112.246 25.3333C112.505 25.2973 112.739 25.3546 112.947 25.5054C113.159 25.6556 113.282 25.8546 113.317 26.1022C113.351 26.3498 113.287 26.5748 113.124 26.7773C112.964 26.9792 112.755 27.0981 112.497 27.1341Z" fill="white"/>
<defs>
<clipPath id="clip0_1_70">
<rect width="36.8529" height="36.8529" fill="white" transform="translate(50.8257 85.7197) rotate(158.441)"/>
</clipPath>
</defs>
</svg>
