<svg width="24" height="24" viewBox="0 0 24 24" fill="none" xmlns="http://www.w3.org/2000/svg">
<path d="M21.2503 11.3737H23.7503C23.7503 4.96125 18.909 0.125 12.4878 0.125V2.625C17.5653 2.625 21.2503 6.30375 21.2503 11.3737Z" fill="#FF715B"/>
<path d="M12.5004 7.62579C15.1291 7.62579 16.2504 8.74704 16.2504 11.3758H18.7504C18.7504 7.34454 16.5316 5.12579 12.5004 5.12579V7.62579ZM16.7779 14.4295C16.5377 14.2112 16.222 14.0948 15.8976 14.1048C15.5732 14.1149 15.2654 14.2506 15.0391 14.4833L12.0479 17.5595C11.3279 17.422 9.88035 16.9708 8.39035 15.4845C6.90035 13.9933 6.4491 12.542 6.31535 11.827L9.3891 8.83454C9.62212 8.60845 9.75802 8.30056 9.76805 7.97605C9.77809 7.65153 9.66146 7.33584 9.44285 7.09579L4.8241 2.01704C4.60541 1.77623 4.30145 1.63017 3.97679 1.60986C3.65214 1.58956 3.33235 1.69661 3.08535 1.90829L0.372853 4.23454C0.156741 4.45143 0.0277519 4.7401 0.0103525 5.04579C-0.00839755 5.35829 -0.365897 12.7608 5.3741 18.5033C10.3816 23.5095 16.6541 23.8758 18.3816 23.8758C18.6341 23.8758 18.7891 23.8683 18.8304 23.8658C19.136 23.8487 19.4245 23.7191 19.6404 23.502L21.9654 20.7883C22.1772 20.5414 22.2845 20.2218 22.2644 19.8971C22.2443 19.5724 22.0985 19.2684 21.8579 19.0495L16.7779 14.4295Z" fill="#FF715B"/>
</svg>
