<svg width="36" height="36" viewBox="0 0 36 36" fill="none" xmlns="http://www.w3.org/2000/svg">
<rect width="36" height="36" rx="18" fill="white" fill-opacity="0.1"/>
<path d="M17.4693 25.1989C16.4466 25.1989 15.5375 25.0237 14.7421 24.6733C13.9513 24.3229 13.3263 23.8352 12.8671 23.2102C12.4078 22.5852 12.1639 21.8632 12.1355 21.044H14.806C14.8296 21.437 14.9599 21.7803 15.1966 22.0739C15.4333 22.3627 15.7482 22.5876 16.1412 22.7486C16.5342 22.9096 16.9745 22.9901 17.4622 22.9901C17.9831 22.9901 18.4447 22.9001 18.8472 22.7202C19.2496 22.5355 19.5645 22.2798 19.7918 21.9531C20.019 21.6264 20.1303 21.25 20.1256 20.8239C20.1303 20.3835 20.0167 19.9953 19.7847 19.6591C19.5527 19.3229 19.2165 19.0601 18.7761 18.8707C18.3405 18.6813 17.815 18.5866 17.1994 18.5866H15.9139V16.5554H17.1994C17.7061 16.5554 18.1488 16.4678 18.5276 16.2926C18.9111 16.1174 19.2118 15.8712 19.4296 15.554C19.6474 15.232 19.7539 14.8603 19.7492 14.4389C19.7539 14.027 19.6616 13.6695 19.4722 13.3665C19.2875 13.0587 19.0247 12.8196 18.6838 12.6491C18.3476 12.4787 17.9523 12.3935 17.4977 12.3935C17.0527 12.3935 16.6407 12.474 16.2619 12.6349C15.8832 12.7959 15.5778 13.0256 15.3457 13.3239C15.1137 13.6174 14.9906 13.9678 14.9764 14.375H12.4409C12.4599 13.5606 12.6942 12.8456 13.144 12.2301C13.5986 11.6098 14.2046 11.1269 14.9622 10.7812C15.7198 10.4309 16.5697 10.2557 17.5119 10.2557C18.4826 10.2557 19.3254 10.438 20.0403 10.8026C20.76 11.1624 21.3164 11.6477 21.7094 12.2585C22.1024 12.8693 22.2989 13.544 22.2989 14.2827C22.3036 15.1018 22.0621 15.7884 21.5744 16.3423C21.0915 16.8963 20.457 17.2585 19.671 17.429V17.5426C20.6938 17.6847 21.4774 18.0634 22.0219 18.679C22.5711 19.2898 22.8434 20.0497 22.8386 20.9588C22.8386 21.7732 22.6066 22.5024 22.1426 23.1463C21.6833 23.7855 21.0489 24.2874 20.2392 24.652C19.4343 25.0166 18.511 25.1989 17.4693 25.1989Z" fill="white"/>
</svg>
