<svg width="36" height="36" viewBox="0 0 36 36" fill="none" xmlns="http://www.w3.org/2000/svg">
<rect width="36" height="36" rx="18" fill="white" fill-opacity="0.1"/>
<path d="M13.3615 25V23.0966L18.4112 18.1463C18.8941 17.6586 19.2966 17.2254 19.6186 16.8466C19.9405 16.4678 20.182 16.1009 20.343 15.7457C20.504 15.3906 20.5845 15.0118 20.5845 14.6094C20.5845 14.1501 20.4803 13.7571 20.272 13.4304C20.0636 13.099 19.7772 12.8433 19.4126 12.6634C19.048 12.4834 18.6337 12.3935 18.1697 12.3935C17.6915 12.3935 17.2724 12.4929 16.9126 12.6918C16.5527 12.8859 16.2734 13.1629 16.0745 13.5227C15.8804 13.8826 15.7833 14.3111 15.7833 14.8082H13.2762C13.2762 13.8849 13.4869 13.0824 13.9083 12.4006C14.3297 11.7187 14.9098 11.1908 15.6484 10.8168C16.3918 10.4427 17.244 10.2557 18.2052 10.2557C19.1806 10.2557 20.0376 10.438 20.7762 10.8026C21.5149 11.1671 22.0878 11.6667 22.495 12.3011C22.9069 12.9356 23.1129 13.66 23.1129 14.4744C23.1129 15.0189 23.0087 15.554 22.8004 16.0795C22.592 16.6051 22.2251 17.1875 21.6995 17.8267C21.1787 18.4659 20.4472 19.2401 19.5049 20.1491L16.9978 22.6989V22.7983H23.3331V25H13.3615Z" fill="white"/>
</svg>
