<svg width="76" height="49" viewBox="0 0 76 49" fill="none" xmlns="http://www.w3.org/2000/svg">
<path d="M21.4646 1.9656V14.1748L35.6161 0.0232188H23.1295C21.5756 -0.198767 21.3721 1.22564 21.4646 1.9656Z" fill="#949494"/>
<path d="M23.3949 35.5192L35.604 35.5759L21.5183 21.3588L21.4602 33.8453C21.231 35.3981 22.6545 35.6082 23.3949 35.5192Z" fill="#949494"/>
<path d="M39.2231 0.0234375L21.7417 17.5048H40.0555L52.8197 4.46316C53.9297 1.35535 52.3573 0.208426 51.4323 0.0234375H39.2231Z" fill="#949494"/>
<path d="M39.7708 35.8187L21.7418 17.2879L39.7708 17.288L53.6524 31.1013C54.8258 34.1312 53.5789 35.6123 52.6734 35.8185L39.7708 35.8187Z" fill="#949494"/>
<path d="M40.2979 13.8739H34.3154L38.0114 9.43422H40.2979V13.8739ZM37.5231 23.3083C37.0902 23.3083 36.7017 23.1641 36.3687 22.8311C36.0358 22.4981 35.8582 22.1096 35.8582 21.6434C35.8582 21.2106 36.0358 20.8221 36.3687 20.4891C36.7017 20.1561 37.0902 19.9786 37.5231 19.9786C37.9892 19.9786 38.3777 20.1561 38.7107 20.4891C39.0437 20.8221 39.188 21.2106 39.188 21.6434C39.188 22.1096 39.0437 22.4981 38.7107 22.8311C38.3777 23.1641 37.9892 23.3083 37.5231 23.3083ZM50.2873 23.3083C49.7989 23.3083 49.3993 23.1641 49.0885 22.8311C48.7778 22.4981 48.6224 22.1096 48.6224 21.6434C48.6224 21.2106 48.7778 20.8221 49.0885 20.4891C49.3993 20.1561 49.7989 19.9786 50.2873 19.9786C50.7756 19.9786 51.1752 20.1561 51.486 20.4891C51.7968 20.8221 51.9522 21.2106 51.9522 21.6434C51.9522 22.1096 51.7968 22.4981 51.486 22.8311C51.1752 23.1641 50.7756 23.3083 50.2873 23.3083ZM36.9681 7.21436L31.4185 13.8739V21.6434H34.1933C34.1933 22.5647 34.5374 23.3416 35.2033 24.0076C35.8582 24.6625 36.6351 24.9732 37.5231 24.9732C38.4443 24.9732 39.2213 24.6625 39.8761 24.0076C40.5421 23.3416 40.8529 22.5647 40.8529 21.6434H46.9575C46.9575 22.5647 47.2905 23.3416 47.9453 24.0076C48.6224 24.6625 49.3882 24.9732 50.2873 24.9732C51.1863 24.9732 51.9522 24.6625 52.6292 24.0076C53.2841 23.3416 53.6171 22.5647 53.6171 21.6434H55.8369V17.2037H46.7466L53.6171 11.7762V14.9839H55.8369V8.32429H54.727L42.5178 15.0505V7.21436H36.9681Z" fill="#292929"/>
<path d="M42.3962 46.4258V40.0203H40V39.1112H45.7808V40.0203H43.3846V46.4258H42.3962Z" fill="#949494"/>
<path d="M48.4488 46.4885C47.9164 46.4885 47.4438 46.3665 47.0311 46.1227C46.6184 45.8789 46.2923 45.5445 46.0527 45.1196C45.813 44.6877 45.6932 44.2001 45.6932 43.6567C45.6932 43.1064 45.813 42.6187 46.0527 42.1938C46.2923 41.7688 46.6184 41.438 47.0311 41.2011C47.4438 40.9573 47.9164 40.8354 48.4488 40.8354C48.9747 40.8354 49.4439 40.9573 49.8566 41.2011C50.2759 41.438 50.6021 41.7688 50.8351 42.1938C51.0747 42.6118 51.1945 43.0994 51.1945 43.6567C51.1945 44.207 51.0747 44.6947 50.8351 45.1196C50.6021 45.5445 50.2759 45.8789 49.8566 46.1227C49.4439 46.3665 48.9747 46.4885 48.4488 46.4885ZM48.4488 45.6107C48.7883 45.6107 49.0912 45.5306 49.3574 45.3704C49.6303 45.2102 49.8433 44.9838 49.9964 44.6912C50.1495 44.3916 50.226 44.0468 50.226 43.6567C50.226 43.2596 50.1495 42.9183 49.9964 42.6327C49.8433 42.3401 49.6303 42.1137 49.3574 41.9535C49.0912 41.7932 48.7883 41.7131 48.4488 41.7131C48.1094 41.7131 47.8065 41.7932 47.5403 41.9535C47.274 42.1137 47.061 42.3401 46.9013 42.6327C46.7416 42.9183 46.6617 43.2596 46.6617 43.6567C46.6617 44.0468 46.7416 44.3916 46.9013 44.6912C47.061 44.9838 47.274 45.2102 47.5403 45.3704C47.8065 45.5306 48.1094 45.6107 48.4488 45.6107Z" fill="#949494"/>
<path d="M53.492 46.4258L51.5251 40.8876H52.4337L54.1809 45.9033H53.7516L55.5687 40.8876H56.3774L58.1546 45.9033H57.7353L59.5224 40.8876H60.3811L58.4042 46.4258H57.4857L55.8183 41.849H56.0979L54.4105 46.4258H53.492Z" fill="#949494"/>
<path d="M61.3537 46.4258V40.8876H62.3121V46.4258H61.3537ZM61.8329 39.8218C61.6465 39.8218 61.4901 39.7591 61.3636 39.6337C61.2438 39.5083 61.1839 39.3551 61.1839 39.1739C61.1839 38.9858 61.2438 38.8291 61.3636 38.7037C61.4901 38.5783 61.6465 38.5156 61.8329 38.5156C62.0193 38.5156 62.1724 38.5783 62.2922 38.7037C62.4186 38.8221 62.4819 38.9719 62.4819 39.153C62.4819 39.3411 62.422 39.5013 62.3022 39.6337C62.1823 39.7591 62.0259 39.8218 61.8329 39.8218Z" fill="#949494"/>
<path d="M66.9677 40.8354C67.4004 40.8354 67.7798 40.9225 68.1059 41.0966C68.4387 41.2708 68.6983 41.5355 68.8847 41.8908C69.071 42.246 69.1642 42.6954 69.1642 43.2387V46.4258H68.2057V43.3537C68.2057 42.8173 68.0793 42.4132 67.8263 42.1415C67.5801 41.8699 67.2306 41.734 66.778 41.734C66.4385 41.734 66.1424 41.8037 65.8894 41.943C65.6365 42.0823 65.4401 42.2878 65.3004 42.5595C65.1672 42.8312 65.1007 43.1691 65.1007 43.5731V46.4258H64.1422V40.8876H65.0607V42.3819L64.911 41.9848C65.084 41.6226 65.3503 41.3404 65.7097 41.1384C66.0691 40.9364 66.4885 40.8354 66.9677 40.8354Z" fill="#949494"/>
<path d="M73.2544 48.5156C72.7685 48.5156 72.2959 48.4425 71.8366 48.2962C71.384 48.1569 71.0146 47.9548 70.7284 47.6901L71.1876 46.9169C71.4339 47.1398 71.7368 47.314 72.0962 47.4393C72.4556 47.5717 72.8317 47.6379 73.2244 47.6379C73.8501 47.6379 74.3094 47.4846 74.6022 47.1781C74.8951 46.8716 75.0415 46.4049 75.0415 45.7779V44.6076L75.1414 43.5104L75.0914 42.4028V40.8876H76V45.6734C76 46.6487 75.767 47.3662 75.3011 47.826C74.8352 48.2857 74.1529 48.5156 73.2544 48.5156ZM73.1346 46.1959C72.622 46.1959 72.1628 46.0844 71.7567 45.8615C71.3574 45.6316 71.0379 45.3146 70.7983 44.9106C70.5653 44.5066 70.4488 44.0398 70.4488 43.5104C70.4488 42.974 70.5653 42.5073 70.7983 42.1102C71.0379 41.7062 71.3574 41.3927 71.7567 41.1698C72.1628 40.9468 72.622 40.8354 73.1346 40.8354C73.5872 40.8354 73.9998 40.9329 74.3726 41.128C74.7453 41.316 75.0415 41.6086 75.2612 42.0057C75.4875 42.4028 75.6006 42.9043 75.6006 43.5104C75.6006 44.1095 75.4875 44.6076 75.2612 45.0047C75.0415 45.4017 74.7453 45.7013 74.3726 45.9033C73.9998 46.0983 73.5872 46.1959 73.1346 46.1959ZM73.2444 45.3181C73.5971 45.3181 73.91 45.2415 74.1829 45.0882C74.4558 44.935 74.6688 44.7225 74.8219 44.4508C74.9816 44.1792 75.0615 43.8657 75.0615 43.5104C75.0615 43.1551 74.9816 42.8416 74.8219 42.57C74.6688 42.2983 74.4558 42.0893 74.1829 41.943C73.91 41.7897 73.5971 41.7131 73.2444 41.7131C72.8916 41.7131 72.5754 41.7897 72.2959 41.943C72.023 42.0893 71.8067 42.2983 71.6469 42.57C71.4938 42.8416 71.4173 43.1551 71.4173 43.5104C71.4173 43.8657 71.4938 44.1792 71.6469 44.4508C71.8067 44.7225 72.023 44.935 72.2959 45.0882C72.5754 45.2415 72.8916 45.3181 73.2444 45.3181Z" fill="#949494"/>
<path d="M1.77116 44.6585L1.66108 42.2189L4.67305 38.6695H6.85447L3.85251 42.2409L2.7518 43.5046L1.77116 44.6585ZM0 46.3618V38.6695H1.96128V46.3618H0ZM4.70307 46.3618L2.42158 43.186L3.71242 41.6695L7.00457 46.3618H4.70307Z" fill="#949494"/>
<path d="M10.8027 46.5156C10.2423 46.5156 9.7253 46.4167 9.25166 46.2189C8.77802 46.0211 8.36442 45.7427 8.01085 45.3838C7.66396 45.0175 7.39378 44.5925 7.20032 44.109C7.00686 43.6255 6.91013 43.0944 6.91013 42.5156C6.91013 41.9369 7.00686 41.4057 7.20032 40.9222C7.39378 40.4387 7.66396 40.0175 8.01085 39.6585C8.36442 39.2922 8.77802 39.0101 9.25166 38.8123C9.7253 38.6145 10.2423 38.5156 10.8027 38.5156C11.3697 38.5156 11.8867 38.6145 12.3537 38.8123C12.8273 39.0101 13.2376 39.2922 13.5845 39.6585C13.9314 40.0175 14.2016 40.4387 14.395 40.9222C14.5951 41.4057 14.6952 41.9369 14.6952 42.5156C14.6952 43.0944 14.5951 43.6292 14.395 44.12C14.2016 44.6035 13.9314 45.0248 13.5845 45.3838C13.2376 45.7427 12.8273 46.0211 12.3537 46.2189C11.8867 46.4167 11.3697 46.5156 10.8027 46.5156ZM10.8027 44.7134C11.0695 44.7134 11.3163 44.6621 11.5432 44.5596C11.7766 44.457 11.9768 44.3105 12.1435 44.12C12.317 43.9222 12.4504 43.6878 12.5438 43.4167C12.6439 43.1457 12.6939 42.8453 12.6939 42.5156C12.6939 42.1786 12.6439 41.8783 12.5438 41.6145C12.4504 41.3435 12.317 41.1127 12.1435 40.9222C11.9768 40.7244 11.7766 40.5742 11.5432 40.4717C11.3163 40.3691 11.0695 40.3178 10.8027 40.3178C10.5358 40.3178 10.2857 40.3691 10.0522 40.4717C9.82537 40.5742 9.62524 40.7244 9.45179 40.9222C9.28502 41.1127 9.1516 41.3435 9.05153 41.6145C8.95814 41.8783 8.91144 42.1786 8.91144 42.5156C8.91144 42.8453 8.95814 43.1457 9.05153 43.4167C9.1516 43.6878 9.28502 43.9222 9.45179 44.12C9.62524 44.3105 9.82537 44.457 10.0522 44.5596C10.2857 44.6621 10.5358 44.7134 10.8027 44.7134Z" fill="#949494"/>
<path d="M15.7329 46.3618V38.6695H17.7142V44.6365H21.0564V46.3618H15.7329Z" fill="#949494"/>
<path d="M21.0683 46.3618L24.1603 38.6695H26.1116L29.2136 46.3618H27.1522L24.7307 39.7354H25.5112L23.0896 46.3618H21.0683ZM22.7594 44.8673L23.2697 43.2629H26.6919L27.2023 44.8673H22.7594Z" fill="#949494"/>
<path d="M29.7753 46.3618V38.6695H33.0874C33.8613 38.6695 34.5417 38.827 35.1288 39.142C35.7158 39.457 36.1728 39.9002 36.4997 40.4717C36.8332 41.0431 37 41.7244 37 42.5156C37 43.2995 36.8332 43.9808 36.4997 44.5596C36.1728 45.131 35.7158 45.5742 35.1288 45.8893C34.5417 46.2043 33.8613 46.3618 33.0874 46.3618H29.7753ZM31.7566 44.6255H33.0074C33.4077 44.6255 33.7545 44.5449 34.0481 44.3838C34.3483 44.2153 34.5818 43.9735 34.7485 43.6585C34.9153 43.3361 34.9987 42.9552 34.9987 42.5156C34.9987 42.0687 34.9153 41.6878 34.7485 41.3728C34.5818 41.0577 34.3483 40.8197 34.0481 40.6585C33.7545 40.49 33.4077 40.4057 33.0074 40.4057H31.7566V44.6255Z" fill="#949494"/>
</svg>
