<svg width="175" height="46" viewBox="0 0 175 46" fill="none" xmlns="http://www.w3.org/2000/svg">
<path d="M37.3894 15.5182H41.106V34.1332H48.031L47.8087 36.4839H37.3894V15.5182ZM58.9392 32.0049C59.4263 32.2378 59.6699 32.6931 59.6699 33.3708C59.6699 34.1332 59.4157 34.8109 58.9075 35.4038C58.3992 35.9756 57.7427 36.4098 56.938 36.7062C56.1332 37.0239 55.3179 37.1827 54.492 37.1827C52.1625 37.1827 50.4365 36.4309 49.3141 34.9273C48.1917 33.4026 47.6305 31.3589 47.6305 28.7965C47.6305 26.0646 48.234 23.8621 49.4412 22.1891C50.6695 20.4949 52.5225 19.6478 55.0002 19.6478C56.5674 19.6478 57.8274 20.0608 58.7804 20.8867C59.7334 21.6914 60.2099 22.835 60.2099 24.3174C60.2099 26.1599 59.564 27.4517 58.2722 28.1929C57.0015 28.9341 55.265 29.3047 53.0625 29.3047C52.4484 29.3047 51.866 29.2836 51.3154 29.2412C51.3789 30.9142 51.6542 32.2484 52.1413 33.2437C52.6495 34.2391 53.539 34.7367 54.8096 34.7367C55.7415 34.7367 56.5568 34.5038 57.2556 34.0379C57.9757 33.5508 58.5369 32.8731 58.9392 32.0049ZM54.492 21.4585C53.3484 21.4585 52.5437 22.062 52.0778 23.2692C51.6119 24.4551 51.3577 25.9163 51.3154 27.6529C51.9507 27.6952 52.4166 27.7164 52.7131 27.7164C55.3814 27.7164 56.7156 26.647 56.7156 24.508C56.7156 23.6398 56.525 22.9197 56.1438 22.3479C55.7838 21.755 55.2332 21.4585 54.492 21.4585ZM70.28 35.0226C69.8777 35.7639 69.2847 36.3039 68.5011 36.6427C67.7387 37.0027 66.8705 37.1827 65.8963 37.1827C64.435 37.1827 63.2068 36.738 62.2114 35.8486C61.2373 34.9591 60.7502 33.8049 60.7502 32.386C60.7502 28.9553 63.8103 27.2399 69.9306 27.2399V24.4763C69.9306 23.4174 69.7718 22.6338 69.4541 22.1256C69.1364 21.5961 68.5329 21.3314 67.6434 21.3314C66.9022 21.3314 66.2881 21.5326 65.801 21.935C65.3139 22.3162 65.0704 22.8562 65.0704 23.5551C65.0704 23.9998 65.1551 24.4763 65.3245 24.9845C65.028 25.2175 64.6045 25.334 64.0539 25.334C63.2915 25.334 62.6879 25.1434 62.2432 24.7622C61.7985 24.381 61.5761 23.8304 61.5761 23.1103C61.5761 22.0938 62.1479 21.2679 63.2915 20.6326C64.435 19.9761 65.9598 19.6478 67.8658 19.6478C69.2635 19.6478 70.3647 19.8596 71.1695 20.2831C71.9742 20.6855 72.546 21.3208 72.8849 22.1891C73.2449 23.0362 73.4249 24.1798 73.4249 25.6199V33.8791C73.4249 34.9168 73.7531 35.6156 74.4096 35.9756C74.2402 36.2933 73.9861 36.5368 73.6472 36.7062C73.3296 36.8757 72.959 36.9604 72.5354 36.9604C71.9213 36.9604 71.413 36.791 71.0106 36.4521C70.6083 36.0921 70.3647 35.6156 70.28 35.0226ZM67.1352 35.0544C68.067 35.0544 68.7658 34.705 69.2317 34.0061C69.6976 33.2861 69.9306 32.3966 69.9306 31.3378V28.8282C66.3516 28.8282 64.5621 29.9718 64.5621 32.259C64.5621 33.1061 64.7845 33.7838 65.2292 34.292C65.6951 34.8003 66.3304 35.0544 67.1352 35.0544ZM81.6206 22.0938C80.7099 22.0938 80.117 22.708 79.8416 23.9362C79.5875 25.1434 79.4605 26.594 79.4605 28.2882V36.4839H75.9662V20.2831L78.8887 19.9019L79.0475 22.7609C79.344 21.8079 79.8628 21.0561 80.604 20.5055C81.3452 19.9337 82.2029 19.6478 83.1771 19.6478C84.236 19.6478 85.0725 19.9549 85.6866 20.569C86.3219 21.1832 86.6396 22.0197 86.6396 23.0786C86.6396 24.7939 85.8137 25.6516 84.1618 25.6516C83.6112 25.6516 83.1877 25.5351 82.8912 25.3022C83.0394 24.7516 83.1136 24.2751 83.1136 23.8727C83.1136 22.6868 82.6159 22.0938 81.6206 22.0938ZM86.9106 20.2831L89.8331 19.9019L89.9919 22.7609C90.3943 21.7444 91.0085 20.9714 91.8344 20.442C92.6815 19.9125 93.6662 19.6478 94.7886 19.6478C96.5675 19.6478 97.8064 20.1455 98.5053 21.1408C99.2041 22.115 99.5536 23.608 99.5536 25.6199V33.8791C99.5536 34.9168 99.8818 35.6156 100.538 35.9756C100.369 36.2933 100.094 36.5368 99.7124 36.7062C99.3312 36.8757 98.9288 36.9604 98.5053 36.9604C97.6793 36.9604 97.0652 36.7274 96.6628 36.2615C96.2605 35.7956 96.0593 35.1391 96.0593 34.292V26.0646C96.0593 24.7304 95.911 23.7351 95.6145 23.0786C95.3181 22.4221 94.6616 22.0938 93.645 22.0938C92.3532 22.0938 91.4849 22.6656 91.0402 23.8092C90.6167 24.9528 90.4049 26.4246 90.4049 28.2247V36.4839H86.9106V20.2831ZM106.806 30.7977L103.82 36.4839H100.167L105.472 28.447L100.548 20.2831H104.615L107.537 25.5563L110.205 20.2831H113.89L108.903 27.9388L114.049 36.4839H109.983L106.806 30.7977ZM122.667 19.6478C124.658 19.6478 126.076 20.4526 126.924 22.062C127.771 23.6503 128.194 25.6834 128.194 28.1611C128.194 30.8719 127.612 33.0531 126.447 34.705C125.282 36.3568 123.493 37.1827 121.079 37.1827C120.062 37.1827 119.141 37.0451 118.315 36.7698V42.2336L114.821 42.6148V20.2831L117.743 19.9019L117.902 22.7609C118.791 20.6855 120.38 19.6478 122.667 19.6478ZM121.428 22.0938C120.327 22.0938 119.533 22.5385 119.046 23.428C118.558 24.2963 118.315 25.3975 118.315 26.7317V34.292C119.289 34.9485 120.263 35.2768 121.237 35.2768C122.529 35.2768 123.376 34.6203 123.779 33.3073C124.181 31.9943 124.382 30.3318 124.382 28.32C124.382 26.4352 124.202 24.9316 123.842 23.8092C123.482 22.6656 122.678 22.0938 121.428 22.0938ZM133.291 13.8664V33.8791C133.291 34.9168 133.619 35.6156 134.275 35.9756C134.106 36.2933 133.82 36.5368 133.418 36.7062C133.037 36.8757 132.634 36.9604 132.211 36.9604C131.406 36.9604 130.802 36.7274 130.4 36.2615C129.998 35.7956 129.796 35.1391 129.796 34.292V14.2476L133.291 13.8664ZM142.025 19.6478C144.397 19.6478 146.155 20.4208 147.298 21.9667C148.442 23.4915 149.014 25.5563 149.014 28.1611C149.014 30.9354 148.463 33.1378 147.362 34.7685C146.26 36.378 144.482 37.1827 142.025 37.1827C139.611 37.1827 137.842 36.4098 136.72 34.8638C135.619 33.3179 135.068 31.1895 135.068 28.4788C135.068 25.8528 135.64 23.7245 136.784 22.0938C137.927 20.4631 139.674 19.6478 142.025 19.6478ZM142.025 35.2768C143.338 35.2768 144.196 34.6309 144.598 33.339C145 32.0472 145.202 30.3742 145.202 28.32C145.202 26.4352 144.979 24.8363 144.534 23.5233C144.111 22.2103 143.274 21.5538 142.025 21.5538C139.928 21.5538 138.88 23.8092 138.88 28.32C138.88 30.3742 139.071 32.0472 139.452 33.339C139.854 34.6309 140.712 35.2768 142.025 35.2768ZM156.19 22.0938C155.28 22.0938 154.687 22.708 154.412 23.9362C154.157 25.1434 154.03 26.594 154.03 28.2882V36.4839H150.536V20.2831L153.459 19.9019L153.617 22.7609C153.914 21.8079 154.433 21.0561 155.174 20.5055C155.915 19.9337 156.773 19.6478 157.747 19.6478C158.806 19.6478 159.642 19.9549 160.256 20.569C160.892 21.1832 161.209 22.0197 161.209 23.0786C161.209 24.7939 160.384 25.6516 158.732 25.6516C158.181 25.6516 157.758 25.5351 157.461 25.3022C157.609 24.7516 157.683 24.2751 157.683 23.8727C157.683 22.6868 157.186 22.0938 156.19 22.0938ZM171.709 32.0049C172.196 32.2378 172.44 32.6931 172.44 33.3708C172.44 34.1332 172.186 34.8109 171.677 35.4038C171.169 35.9756 170.513 36.4098 169.708 36.7062C168.903 37.0239 168.088 37.1827 167.262 37.1827C164.932 37.1827 163.206 36.4309 162.084 34.9273C160.962 33.4026 160.4 31.3589 160.4 28.7965C160.4 26.0646 161.004 23.8621 162.211 22.1891C163.439 20.4949 165.292 19.6478 167.77 19.6478C169.337 19.6478 170.597 20.0608 171.55 20.8867C172.503 21.6914 172.98 22.835 172.98 24.3174C172.98 26.1599 172.334 27.4517 171.042 28.1929C169.771 28.9341 168.035 29.3047 165.832 29.3047C165.218 29.3047 164.636 29.2836 164.085 29.2412C164.149 30.9142 164.424 32.2484 164.911 33.2437C165.419 34.2391 166.309 34.7367 167.58 34.7367C168.511 34.7367 169.327 34.5038 170.026 34.0379C170.746 33.5508 171.307 32.8731 171.709 32.0049ZM167.262 21.4585C166.118 21.4585 165.314 22.062 164.848 23.2692C164.382 24.4551 164.128 25.9163 164.085 27.6529C164.721 27.6952 165.187 27.7164 165.483 27.7164C168.151 27.7164 169.486 26.647 169.486 24.508C169.486 23.6398 169.295 22.9197 168.914 22.3479C168.554 21.755 168.003 21.4585 167.262 21.4585Z" fill="#D6D8EE"/>
<path opacity="0.96" d="M27.3009 34.1851L3.55488 28.3328L2.37615 16.2248C2.37615 16.2248 9.28574 21.1516 15.8334 25.8424C21.8135 30.1299 27.4882 34.2239 27.3009 34.1851Z" fill="#FFC212"/>
<path opacity="0.96" d="M27.4137 30.5882L16.1705 8.86644L24.5021 0.000260592C24.5071 -0.000447849 27.6145 30.933 27.4137 30.5882Z" fill="#FF7D51"/>
<path opacity="0.96" d="M26.9905 36.7272L15.1898 43.3353L10.1401 38.8936C10.1401 38.8936 27.1761 36.6124 26.9905 36.7272Z" fill="#0AAFFF"/>
</svg>
